<?xml version="1.0" standalone="no"?>
<!DOCTYPE svg PUBLIC "-//W3C//DTD SVG 20010904//EN"
 "http://www.w3.org/TR/2001/REC-SVG-20010904/DTD/svg10.dtd">
<svg version="1.0" xmlns="http://www.w3.org/2000/svg"
 width="512.000000pt" height="512.000000pt" viewBox="0 0 512.000000 512.000000"
 preserveAspectRatio="xMidYMid meet">
<metadata>
Created by potrace 1.11, written by Peter Selinger 2001-2013
</metadata>
<g transform="translate(0.000000,512.000000) scale(0.100000,-0.100000)"
fill="#000000" stroke="none">
<path d="M2429 5115 c-2 -2 -31 -6 -63 -9 -32 -4 -62 -8 -65 -10 -3 -2 -23 -7
-43 -10 -87 -14 -309 -100 -413 -160 -136 -78 -324 -240 -402 -344 -15 -20
-30 -39 -34 -42 -17 -15 -92 -137 -132 -215 -86 -171 -142 -367 -152 -540 -2
-22 -3 -221 -4 -442 l-1 -403 -63 0 c-107 0 -181 -52 -196 -136 -4 -22 -6
-633 -6 -1359 l0 -1320 23 -37 c13 -21 38 -48 55 -60 l32 -23 1631 0 1630 0
37 25 c21 14 46 43 57 66 20 40 20 64 20 1380 0 1285 -1 1341 -19 1374 -10 19
-37 48 -60 65 l-42 30 -1297 0 -1297 0 1 430 c2 428 2 430 27 528 89 336 328
582 664 683 79 24 105 27 258 28 94 0 186 -2 205 -5 270 -50 491 -193 634
-408 97 -146 147 -294 160 -478 1 -18 5 -36 10 -40 4 -4 117 -8 251 -8 l243 0
-4 55 c-12 172 -26 252 -69 390 -68 216 -205 432 -380 603 -89 87 -358 267
-398 267 -7 0 -17 4 -23 9 -20 19 -212 80 -304 96 -19 4 -48 9 -65 12 -35 6
-401 14 -406 8z m408 -180 c120 -22 205 -47 303 -89 397 -174 680 -537 754
-966 l6 -36 -82 1 c-79 1 -83 2 -90 25 -3 14 -16 61 -28 105 -33 122 -81 224
-162 341 -47 70 -167 196 -218 231 -14 9 -27 20 -30 23 -11 15 -139 90 -200
119 -79 36 -220 78 -299 88 -70 10 -318 9 -389 -1 -149 -20 -345 -101 -477
-196 -228 -164 -394 -418 -446 -680 -20 -106 -23 -158 -23 -557 l-1 -403 -83
0 -82 0 0 428 c1 477 6 533 66 710 91 269 265 496 505 660 146 99 357 180 514
198 33 3 62 8 65 11 10 9 331 0 397 -12z m-121 -2985 c97 -42 163 -140 169
-247 4 -64 -11 -115 -48 -174 -38 -59 -87 -95 -166 -120 l-66 -21 -72 21
c-111 33 -172 92 -207 199 -51 153 50 324 211 361 52 11 130 3 179 -19z"/>
</g>
</svg>
